PathFileType	4	(X/Y/Z)	6_coords_data.trc
DataRate	CameraRate	NumFrames	NumMarkers	Units	OrigDataRate	OrigDataStartFrame	OrigNumFrames
30.0	30.0	6	21	m	30.0	72	82
Frame#	Time	THUMB_TIP	THUMB_IP	THUMB_MCP	THUMB_CMC	INDEX_TIP	INDEX_DIP	INDEX_PIP	INDEX_MCP	MIDDLE_TIP	MIDDLE_DIP	MIDDLE_PIP	MIDDLE_MCP	RING_TIP	RING_DIP	RING_PIP	RING_MCP	PINKY_TIP	PINKY_DIP	PINKY_PIP	PINKY_MCP	WRIST
X1	Y1	Z1	X2	Y2	Z2	X3	Y3	Z3	X4	Y4	Z4	X5	Y5	Z5	X6	Y6	Z6	X7	Y7	Z7	X8	Y8	Z8	X9	Y9	Z9	X10	Y10	Z10	X11	Y11	Z11	X12	Y12	Z12	X13	Y13	Z13	X14	Y14	Z14	X15	Y15	Z15	X16	Y16	Z16	X17	Y17	Z17	X18	Y18	Z18	X19	Y19	Z19	X20	Y20	Z20	X21	Y21	Z21
71	2.3666666666666667	0.03913819885253906	-0.08733280181884766	0.9755750122070312	0.03362139892578125	-0.06651830291748047	0.9938740234375	0.019746500015258787	-0.05527159881591797	1.0221400146484374	0.007511660099029541	-0.0270492000579834	1.04175	0.033709800720214844	-0.06004249954223633	0.912156005859375	0.020297300338745116	-0.058558998107910154	0.9308569946289063	0.008276769638061524	-0.05590829849243164	0.9520540161132812	-0.0029972200393676763	-0.047396499633789065	0.9896699829101563	0.0340640983581543	-0.024743999481201172	0.8971500244140626	0.01901460075378418	-0.025927499771118166	0.9169089965820313	0.002403019905090332	-0.026480199813842774	0.9433709716796875	-0.010441200256347656	-0.024034299850463868	0.9839600219726562	0.0381343994140625	0.008322290420532227	0.9072780151367188	0.023030099868774415	0.006484489917755127	0.9252100219726562	0.006730979919433594	0.003494359970092773	0.948510986328125	-0.008134420394897462	-0.0018049700260162349	0.987031005859375	0.04760499954223633	0.023782499313354494	0.9552509765625	0.029194000244140626	0.025987899780273438	0.9602880249023438	0.011991900444030762	0.025664899826049806	0.9693270263671875	-0.004185840129852295	0.01852289962768555	0.9939569702148437	-0.023102699279785158	-0.005669229984283447	1.065219970703125
72	2.4	0.03930059814453125	-0.08708789825439453	0.9754039916992188	0.033923198699951175	-0.06637519836425781	0.9935780029296875	0.020087999343872072	-0.05523759841918945	1.022	0.007618929862976074	-0.02698710060119629	1.0417099609375	0.034109199523925784	-0.06003789901733399	0.9121729736328125	0.02070120048522949	-0.05852410125732422	0.93085498046875	0.008576809883117676	-0.05596390151977539	0.9519290161132813	-0.0028194301128387452	-0.047475700378417966	0.9894869995117187	0.03459540176391602	-0.02457080078125	0.897281982421875	0.019509199142456055	-0.02584950065612793	0.9169169921875	0.0027784900665283204	-0.026406200408935546	0.9432750244140625	-0.010080699920654296	-0.023962900161743163	0.9838839721679687	0.03950559997558594	0.008565919876098633	0.90781201171875	0.02412529945373535	0.006687339782714844	0.9254539794921876	0.007505099773406982	0.003653670072555542	0.9484979858398438	-0.007822979927062988	-0.001749189972877502	0.9868170166015625	0.04837820053100586	0.02374889945983887	0.9556420288085937	0.02999920082092285	0.025930599212646486	0.9605549926757813	0.01248799991607666	0.025670299530029295	0.969489990234375	-0.003791569948196411	0.018550800323486327	0.9937639770507812	-0.02316080093383789	-0.005610249996185303	1.0652900390625
73	2.433333333333333	0.039627201080322264	-0.08685479736328125	0.9753330078125	0.034136001586914065	-0.06609989929199218	0.9935089721679687	0.020108299255371095	-0.05507099914550781	1.022010009765625	0.007872369766235352	-0.02682349967956543	1.0416199951171874	0.03435660171508789	-0.0600082015991211	0.9122210083007812	0.02086949920654297	-0.05854600143432617	0.9307849731445312	0.00871473979949951	-0.05592279815673828	0.9518900146484375	-0.002692850112915039	-0.047406898498535154	0.9894949951171875	0.03444509887695312	-0.024513099670410158	0.8971079711914063	0.019390600204467773	-0.025787900924682618	0.9167680053710937	0.0027244400978088377	-0.02636199951171875	0.9430809936523438	-0.00982091999053955	-0.02394099998474121	0.9837650146484375	0.03922140121459961	0.008582380294799805	0.9076170043945313	0.02384160041809082	0.006721759796142578	0.9253250122070312	0.007350810050964355	0.003683919906616211	0.9484299926757812	-0.00753773021697998	-0.0017653499841690059	0.9868920288085937	0.04847079849243164	0.023735300064086914	0.9555780029296875	0.0300713005065918	0.025912500381469725	0.9606439819335938	0.012673500061035157	0.025668500900268554	0.9694320068359376	-0.003844949960708618	0.018548999786376953	0.9937780151367187	-0.023018400192260743	-0.005520339965820313	1.0651199951171875
74	2.466666666666667	0.03938940048217773	-0.08685089874267578	0.9751209716796875	0.03398529815673828	-0.06615270233154297	0.9933720092773437	0.020078699111938478	-0.055062400817871095	1.0218699951171875	0.007842870235443115	-0.02681209945678711	1.04147998046875	0.03444169998168945	-0.05987570190429688	0.9122340087890625	0.020915800094604493	-0.05841999816894531	0.930718017578125	0.008691049575805665	-0.05582870101928711	0.951791015625	-0.002844640016555786	-0.04741049957275391	0.9893759765625	0.03452259826660156	-0.02436210060119629	0.8970999755859375	0.01944540023803711	-0.02564189910888672	0.9167340087890625	0.0026320300102233877	-0.026227800369262696	0.9429500122070312	-0.01009469985961914	-0.023875099182128906	0.9836699829101563	0.039210300445556644	0.008619190216064453	0.907593994140625	0.023838499069213866	0.0068021597862243655	0.9251890258789063	0.007190740108489991	0.003816270112991333	0.94822802734375	-0.007583109855651855	-0.0017058000564575192	0.9868469848632813	0.048392398834228516	0.023759199142456056	0.9554320068359375	0.030115299224853516	0.02596150016784668	0.9605440063476562	0.012636699676513673	0.02573699951171875	0.969385009765625	-0.003777220010757446	0.01863360023498535	0.9937119750976563	-0.022878400802612303	-0.005507569789886474	1.0651199951171875
75	2.5	0.039361598968505856	-0.08683889770507812	0.9750339965820313	0.03396500015258789	-0.06605049896240234	0.9933800048828125	0.020020599365234374	-0.05502859878540039	1.0218099975585937	0.007866539955139161	-0.026716699600219728	1.041469970703125	0.034690498352050785	-0.059763900756835936	0.9122620239257813	0.021087600708007814	-0.0582932014465332	0.9308109741210937	0.008791440010070801	-0.05572940063476563	0.95185400390625	-0.002697410106658935	-0.047249198913574215	0.9893330078125	0.03496709823608399	-0.02418910026550293	0.8972490234375	0.019743799209594726	-0.02543530082702637	0.9167990112304687	0.002964109897613525	-0.026070199966430663	0.9430339965820312	-0.00989896011352539	-0.023738899230957032	0.9836500244140625	0.0399838981628418	0.008820210456848145	0.9079149780273438	0.024460399627685547	0.007007269859313965	0.925468994140625	0.007549359798431397	0.0040190300941467276	0.9482839965820312	-0.007619810104370117	-0.001527889966964721	0.9866489868164062	0.048936901092529295	0.023837900161743163	0.9558499755859375	0.030434499740600585	0.026092899322509765	0.9607570190429687	0.012883399963378906	0.025874799728393554	0.969416015625	-0.00344717001914978	0.018788000106811524	0.9937239990234376	-0.022936100006103514	-0.0053225898742675784	1.0649300537109374
76	2.533333333333333	0.039361801147460934	-0.08667130279541016	0.9750369873046875	0.033963001251220704	-0.0659302978515625	0.9934019775390625	0.020048900604248045	-0.05492570114135742	1.0218499755859376	0.007923759937286378	-0.02661389923095703	1.041510009765625	0.034519500732421875	-0.05976739883422852	0.9122559814453125	0.0209689998626709	-0.05826739883422852	0.9307369995117187	0.008745019912719726	-0.05571210098266602	0.9518040161132812	-0.0026922800540924072	-0.04714770126342773	0.9894429931640625	0.034446300506591795	-0.02413730049133301	0.8970250244140625	0.01936750030517578	-0.025419700622558595	0.9166820068359375	0.002727799892425537	-0.025997200012207032	0.942927001953125	-0.009959239959716797	-0.023689899444580078	0.9836610107421875	0.039987701416015625	0.008884010314941406	0.9080050048828125	0.02429840087890625	0.007113200187683104	0.9254080200195313	0.007497889995574951	0.004120049953460693	0.9482130126953126	-0.007363739967346191	-0.0014704200029373171	0.9868839721679687	0.048929000854492186	0.023885299682617187	0.9558740234375	0.030566699981689455	0.026110000610351562	0.9608150024414063	0.012961600303649902	0.025897199630737305	0.9694849853515625	-0.003534499883651733	0.01884880065917969	0.9937969970703125	-0.02284230041503906	-0.005319260120391846	1.065050048828125
